<?xml version="1.0" encoding="ISO-8859-1"?>
<!DOCTYPE svg PUBLIC "-//W3C//DTD SVG 1.0//EN" "http://www.w3.org/TR/2001/REC-SVG-20010904/DTD/svg10.dtd">
<!-- generated by Grace-5.1.25 -->
<svg xml:space="preserve" width="11.0000in" height="8.5000in" viewBox="0.0000 0.0000 792.0000 612.0000">
 <g transform="translate(0,612.0000) scale(1,-1)">
  <g style="fill:#FFFFFF; fill-rule:nonzero">
   <path  d="M0.0000,0.0000L0.0000,612.0000L792.0000,612.0000L792.0000,0.0000z"/>
  </g>
  <g style="fill:none; stroke:#FF0000; stroke-width:  1.8360; stroke-linecap:butt; stroke-linejoin:miter; stroke-dasharray:none">
   <path d="M97.9200,248.2482L104.0400,251.7134L110.1600,255.0799L116.2800,258.3710L122.4000,261.6016L128.5200,264.7817L134.6400,267.9188L140.7600,271.0189L146.8800,274.0863L153.0000,277.1249
            L159.1200,280.1377L165.2400,283.1274L171.3600,286.0960L177.4800,289.0455L183.6000,291.9774L189.7200,294.8933L195.8400,297.7943L201.9600,300.6815L208.0800,303.5560L214.2000,306.4186
            L220.3200,309.2701L226.4400,312.1111L232.5600,314.9424L238.6800,317.7645L244.8000,320.5779L250.9200,323.3832L257.0400,326.1808L263.1600,328.9710L269.2800,331.7544L275.4000,334.5311
            L281.5200,337.3015L287.6400,340.0660L293.7600,342.8249L299.8800,345.5783L306.0000,348.3265L312.1200,351.0697L318.2400,353.8082L324.3600,356.5422L330.4800,359.2718L336.6000,361.9972
            L342.7200,364.7186L348.8400,367.4362L354.9600,370.1500L361.0800,372.8603L367.2000,375.5671L373.3200,378.2706L379.4400,380.9709L385.5600,383.6681L391.6800,386.3623L397.8000,389.0537
            L403.9200,391.7422L410.0400,394.4281L416.1600,397.1113L422.2800,399.7921L428.4000,402.4704L434.5200,405.1463L440.6400,407.8199L446.7600,410.4913L452.8800,413.1605L459.0000,415.8277
            L465.1200,418.4928L471.2400,421.1559L477.3600,423.8171L483.4800,426.4764L489.6000,429.1340L495.7200,431.7897L501.8400,434.4438L507.9600,437.0961L514.0800,439.7469L520.2000,442.3960
            L526.3200,445.0436L532.4400,447.6897L538.5600,450.3343L544.6800,452.9775L550.8000,455.6193L556.9200,458.2597L563.0400,460.8988L569.1600,463.5366L575.2800,466.1732L581.4000,468.8085
            L587.5200,471.4426L593.6400,474.0755L599.7600,476.7072L605.8800,479.3379L612.0000,481.9674L618.1200,484.5958L624.2400,487.2232L630.3600,489.8496L636.4800,492.4750L642.6000,495.0993
            L648.7200,497.7227L654.8400,500.3452L660.9600,502.9667L667.0800,505.5873L673.2000,508.2070L679.3200,510.8259L685.4400,513.4439L691.5600,516.0611L697.6800,518.6774"/>
  </g>
  <g style="fill:none; stroke:#008B00; stroke-width:  1.8360; stroke-linecap:butt; stroke-linejoin:miter; stroke-dasharray:none">
   <path d="M97.9200,94.3515L104.0400,96.9029L110.1600,99.4544L116.2800,102.0058L122.4000,104.5573L128.5200,107.1087L134.6400,109.6602L140.7600,112.2116L146.8800,114.7631L153.0000,117.3145
            L159.1200,119.8660L165.2400,122.4175L171.3600,124.9689L177.4800,127.5204L183.6000,130.0718L189.7200,132.6233L195.8400,135.1747L201.9600,137.7262L208.0800,140.2776L214.2000,142.8291
            L220.3200,145.3806L226.4400,147.9320L232.5600,150.4835L238.6800,153.0349L244.8000,155.5864L250.9200,158.1378L257.0400,160.6893L263.1600,163.2407L269.2800,165.7922L275.4000,168.3436
            L281.5200,170.8951L287.6400,173.4466L293.7600,175.9980L299.8800,178.5495L306.0000,181.1009L312.1200,183.6524L318.2400,186.2038L324.3600,188.7553L330.4800,191.3067L336.6000,193.8582
            L342.7200,196.4097L348.8400,198.9611L354.9600,201.5126L361.0800,204.0640L367.2000,206.6155L373.3200,209.1669L379.4400,211.7184L385.5600,214.2698L391.6800,216.8213L397.8000,219.3727
            L403.9200,221.9242L410.0400,224.4757L416.1600,227.0271L422.2800,229.5786L428.4000,232.1300L434.5200,234.6815L440.6400,237.2329L446.7600,239.7844L452.8800,242.3358L459.0000,244.8873
            L465.1200,247.4387L471.2400,249.9902L477.3600,252.5417L483.4800,255.0931L489.6000,257.6446L495.7200,260.1960L501.8400,262.7475L507.9600,265.2989L514.0800,267.8504L520.2000,270.4018
            L526.3200,272.9533L532.4400,275.5048L538.5600,278.0562L544.6800,280.6077L550.8000,283.1591L556.9200,285.7106L563.0400,288.2620L569.1600,290.8135L575.2800,293.3649L581.4000,295.9164
            L587.5200,298.4678L593.6400,301.0193L599.7600,303.5708L605.8800,306.1222L612.0000,308.6737L618.1200,311.2251L624.2400,313.7766L630.3600,316.3280L636.4800,318.8795L642.6000,321.4309
            L648.7200,323.9824L654.8400,326.5338L660.9600,329.0853L667.0800,331.6368L673.2000,334.1882L679.3200,336.7397L685.4400,339.2911L691.5600,341.8426L697.6800,344.3940"/>
  </g>
  <g style="fill:none; stroke:#000000; stroke-width:  1.8360; stroke-linecap:butt; stroke-linejoin:miter; stroke-dasharray: 9 6">
   <path d="M91.8000,245.3100L703.8000,245.3100"/>
  </g>
  <g style="fill:none; stroke:#000000; stroke-width:  0.9180; stroke-linecap:butt; stroke-linejoin:miter; stroke-dasharray:none">
   <path d="M91.8000,91.8000L703.8000,91.8000"/>
   <path d="M91.8000,520.2000L703.8000,520.2000"/>
   <path d="M153.0000,91.8000L153.0000,97.9200"/>
   <path d="M153.0000,520.2000L153.0000,514.0800"/>
   <path d="M275.4000,91.8000L275.4000,97.9200"/>
   <path d="M275.4000,520.2000L275.4000,514.0800"/>
   <path d="M397.8000,91.8000L397.8000,97.9200"/>
   <path d="M397.8000,520.2000L397.8000,514.0800"/>
   <path d="M520.2000,91.8000L520.2000,97.9200"/>
   <path d="M520.2000,520.2000L520.2000,514.0800"/>
   <path d="M642.6000,91.8000L642.6000,97.9200"/>
   <path d="M642.6000,520.2000L642.6000,514.0800"/>
   <path d="M91.8000,91.8000L91.8000,104.0400"/>
   <path d="M91.8000,520.2000L91.8000,507.9600"/>
   <path d="M214.2000,91.8000L214.2000,104.0400"/>
   <path d="M214.2000,520.2000L214.2000,507.9600"/>
   <path d="M336.6000,91.8000L336.6000,104.0400"/>
   <path d="M336.6000,520.2000L336.6000,507.9600"/>
   <path d="M459.0000,91.8000L459.0000,104.0400"/>
   <path d="M459.0000,520.2000L459.0000,507.9600"/>
   <path d="M581.4000,91.8000L581.4000,104.0400"/>
   <path d="M581.4000,520.2000L581.4000,507.9600"/>
   <path d="M703.8000,91.8000L703.8000,104.0400"/>
   <path d="M703.8000,520.2000L703.8000,507.9600"/>
  </g>
  <g style="fill:#000000; fill-rule:nonzero">
   <text   style="font-family:'Times','Nimbus Roman No9 L'; font-style:normal; font-weight:normal; font-size:612.0000" transform="matrix(0.0280,0.0000,-0.0000,-0.0280,87.8000,74.6800)">0</text>
   <text   style="font-family:'Times','Nimbus Roman No9 L'; font-style:normal; font-weight:normal; font-size:612.0000" transform="matrix(0.0280,0.0000,-0.0000,-0.0280,205.7000,74.6800)">20</text>
   <text   style="font-family:'Times','Nimbus Roman No9 L'; font-style:normal; font-weight:normal; font-size:612.0000" transform="matrix(0.0280,0.0000,-0.0000,-0.0280,328.1000,74.6800)">40</text>
   <text   style="font-family:'Times','Nimbus Roman No9 L'; font-style:normal; font-weight:normal; font-size:612.0000" transform="matrix(0.0280,0.0000,-0.0000,-0.0280,450.5000,73.6800)">60</text>
   <text   style="font-family:'Times','Nimbus Roman No9 L'; font-style:normal; font-weight:normal; font-size:612.0000" transform="matrix(0.0280,0.0000,-0.0000,-0.0280,572.9000,74.6800)">80</text>
   <text   style="font-family:'Times','Nimbus Roman No9 L'; font-style:normal; font-weight:normal; font-size:612.0000" transform="matrix(0.0280,0.0000,-0.0000,-0.0280,691.3000,73.6800)">100</text>
   <text   style="font-family:'Times','Nimbus Roman No9 L'; font-style:normal; font-weight:normal; font-size:612.0000" transform="matrix(0.0420,0.0000,-0.0000,-0.0420,365.8000,49.5600)">R</text>
   <text   style="font-family:'Times','Nimbus Roman No9 L'; font-style:normal; font-weight:normal; font-size:612.0000" transform="matrix(0.0297,0.0000,-0.0000,-0.0297,382.8000,39.2784)">j</text>
   <text   style="font-family:'Times','Nimbus Roman No9 L'; font-style:normal; font-weight:normal; font-size:612.0000" transform="matrix(0.0420,0.0000,-0.0000,-0.0420,387.8000,49.5600)"> (</text>
   <text   style="font-family:'Symbol','Standard Symbols L'; font-style:normal; font-weight:normal; font-size:612.0000" transform="matrix(0.0420,0.0000,-0.0000,-0.0420,402.8000,49.5600)">W</text>
   <text   style="font-family:'Times','Nimbus Roman No9 L'; font-style:normal; font-weight:normal; font-size:612.0000" transform="matrix(0.0420,0.0000,-0.0000,-0.0420,422.8000,49.5600)">)</text>
  </g>
  <g style="fill:none; stroke:#000000; stroke-width:  0.9180; stroke-linecap:butt; stroke-linejoin:miter; stroke-dasharray:none">
   <path d="M91.8000,91.8000L91.8000,520.2000"/>
   <path d="M703.8000,91.8000L703.8000,520.2000"/>
   <path d="M91.8000,127.5000L97.9200,127.5000"/>
   <path d="M703.8000,127.5000L697.6800,127.5000"/>
   <path d="M91.8000,198.9000L97.9200,198.9000"/>
   <path d="M703.8000,198.9000L697.6800,198.9000"/>
   <path d="M91.8000,270.3000L97.9200,270.3000"/>
   <path d="M703.8000,270.3000L697.6800,270.3000"/>
   <path d="M91.8000,341.7000L97.9200,341.7000"/>
   <path d="M703.8000,341.7000L697.6800,341.7000"/>
   <path d="M91.8000,413.1000L97.9200,413.1000"/>
   <path d="M703.8000,413.1000L697.6800,413.1000"/>
   <path d="M91.8000,484.5000L97.9200,484.5000"/>
   <path d="M703.8000,484.5000L697.6800,484.5000"/>
   <path d="M91.8000,91.8000L104.0400,91.8000"/>
   <path d="M703.8000,91.8000L691.5600,91.8000"/>
   <path d="M91.8000,163.2000L104.0400,163.2000"/>
   <path d="M703.8000,163.2000L691.5600,163.2000"/>
   <path d="M91.8000,234.6000L104.0400,234.6000"/>
   <path d="M703.8000,234.6000L691.5600,234.6000"/>
   <path d="M91.8000,306.0000L104.0400,306.0000"/>
   <path d="M703.8000,306.0000L691.5600,306.0000"/>
   <path d="M91.8000,377.4000L104.0400,377.4000"/>
   <path d="M703.8000,377.4000L691.5600,377.4000"/>
   <path d="M91.8000,448.8000L104.0400,448.8000"/>
   <path d="M703.8000,448.8000L691.5600,448.8000"/>
   <path d="M91.8000,520.2000L104.0400,520.2000"/>
   <path d="M703.8000,520.2000L691.5600,520.2000"/>
  </g>
  <g style="fill:#000000; fill-rule:nonzero">
   <text   style="font-family:'Times','Nimbus Roman No9 L'; font-style:normal; font-weight:normal; font-size:612.0000" transform="matrix(0.0280,0.0000,-0.0000,-0.0280,77.6800,86.3000)">0</text>
   <text   style="font-family:'Times','Nimbus Roman No9 L'; font-style:normal; font-weight:normal; font-size:612.0000" transform="matrix(0.0280,0.0000,-0.0000,-0.0280,68.6800,157.2000)">10</text>
   <text   style="font-family:'Times','Nimbus Roman No9 L'; font-style:normal; font-weight:normal; font-size:612.0000" transform="matrix(0.0280,0.0000,-0.0000,-0.0280,68.6800,229.1000)">20</text>
   <text   style="font-family:'Times','Nimbus Roman No9 L'; font-style:normal; font-weight:normal; font-size:612.0000" transform="matrix(0.0280,0.0000,-0.0000,-0.0280,68.6800,300.5000)">30</text>
   <text   style="font-family:'Times','Nimbus Roman No9 L'; font-style:normal; font-weight:normal; font-size:612.0000" transform="matrix(0.0280,0.0000,-0.0000,-0.0280,68.6800,371.9000)">40</text>
   <text   style="font-family:'Times','Nimbus Roman No9 L'; font-style:normal; font-weight:normal; font-size:612.0000" transform="matrix(0.0280,0.0000,-0.0000,-0.0280,68.6800,442.8000)">50</text>
   <text   style="font-family:'Times','Nimbus Roman No9 L'; font-style:normal; font-weight:normal; font-size:612.0000" transform="matrix(0.0280,0.0000,-0.0000,-0.0280,68.6800,514.2000)">60</text>
   <text   style="font-family:'Times','Nimbus Roman No9 L'; font-style:normal; font-weight:normal; font-size:612.0000" transform="matrix(0.0000,0.0420,0.0420,-0.0000,52.2784,273.0000)">R</text>
   <text   style="font-family:'Times','Nimbus Roman No9 L'; font-style:normal; font-weight:normal; font-size:612.0000" transform="matrix(0.0000,0.0297,0.0297,-0.0000,62.5600,290.0000)">s</text>
   <text   style="font-family:'Times','Nimbus Roman No9 L'; font-style:normal; font-weight:normal; font-size:612.0000" transform="matrix(0.0000,0.0420,0.0420,-0.0000,52.2784,297.0000)"> (</text>
   <text   style="font-family:'Symbol','Standard Symbols L'; font-style:normal; font-weight:normal; font-size:612.0000" transform="matrix(0.0000,0.0420,0.0420,-0.0000,52.2784,312.0000)">W</text>
   <text   style="font-family:'Times','Nimbus Roman No9 L'; font-style:normal; font-weight:normal; font-size:612.0000" transform="matrix(0.0000,0.0420,0.0420,-0.0000,52.2784,332.0000)">)</text>
  </g>
  <g style="fill:none; stroke:#000000; stroke-width:  0.9180; stroke-linecap:butt; stroke-linejoin:miter; stroke-dasharray:none">
   <path d="M91.8000,91.8000L91.8000,520.2000L703.8000,520.2000L703.8000,91.8000z"/>
  </g>
  <g style="fill:#000000; fill-rule:nonzero">
   <text   style="font-family:'Times','Nimbus Roman No9 L'; font-style:normal; font-weight:normal; font-size:612.0000" transform="matrix(0.0355,0.0166,0.0166,-0.0355,309.9130,365.3217)">R</text>
   <text   style="font-family:'Times','Nimbus Roman No9 L'; font-style:normal; font-weight:normal; font-size:612.0000" transform="matrix(0.0251,0.0117,0.0117,-0.0251,318.8298,385.3674)">MNR</text>
   <text   style="font-family:'Times','Nimbus Roman No9 L'; font-style:normal; font-weight:normal; font-size:612.0000" transform="matrix(0.0355,0.0166,0.0166,-0.0355,359.9130,388.3217)"> = a R</text>
   <text   style="font-family:'Times','Nimbus Roman No9 L'; font-style:normal; font-weight:normal; font-size:612.0000" transform="matrix(0.0251,0.0117,0.0117,-0.0251,416.9686,404.6247)">j</text>
   <text   style="font-family:'Times','Nimbus Roman No9 L'; font-style:normal; font-weight:normal; font-size:612.0000" transform="matrix(0.0355,0.0166,0.0166,-0.0355,416.9130,415.3217)"> + R</text>
   <text   style="font-family:'Times','Nimbus Roman No9 L'; font-style:normal; font-weight:normal; font-size:612.0000" transform="matrix(0.0251,0.0117,0.0117,-0.0251,458.9686,424.6247)">0</text>
   <text   style="font-family:'Times','Nimbus Roman No9 L'; font-style:normal; font-weight:normal; font-size:612.0000" transform="matrix(0.0389,0.0000,-0.0000,-0.0389,176.0870,260.1078)">R</text>
   <text   style="font-family:'Times','Nimbus Roman No9 L'; font-style:normal; font-weight:normal; font-size:612.0000" transform="matrix(0.0275,0.0000,-0.0000,-0.0275,192.0870,250.5802)">0</text>
   <text   style="font-family:'Times','Nimbus Roman No9 L'; font-style:normal; font-weight:normal; font-size:612.0000" transform="matrix(0.0355,0.0166,0.0166,-0.0355,534.0522,287.6400)">R</text>
   <text   style="font-family:'Times','Nimbus Roman No9 L'; font-style:normal; font-weight:normal; font-size:612.0000" transform="matrix(0.0251,0.0117,0.0117,-0.0251,542.9689,307.6856)">JDA</text>
   <text   style="font-family:'Times','Nimbus Roman No9 L'; font-style:normal; font-weight:normal; font-size:612.0000" transform="matrix(0.0355,0.0166,0.0166,-0.0355,577.0522,307.6400)"> = a R</text>
   <text   style="font-family:'Times','Nimbus Roman No9 L'; font-style:normal; font-weight:normal; font-size:612.0000" transform="matrix(0.0251,0.0117,0.0117,-0.0251,634.1077,323.9429)">j</text>
  </g>
 </g>
</svg>
